<mxfile host="app.diagrams.net" modified="2020-12-17T13:32:52.914Z" agent="5.0 (X11; Linux x86_64) AppleWebKit/537.36 (KHTML, like Gecko) Chrome/87.0.4280.88 Safari/537.36" etag="IXk-4eryzZqBISr67f7y" version="14.0.4" type="github">
  <diagram id="kgpKYQtTHZ0yAKxKKP6v" name="Page-1">
    <mxGraphModel dx="2001" dy="627" grid="1" gridSize="10" guides="1" tooltips="1" connect="1" arrows="1" fold="1" page="1" pageScale="1" pageWidth="850" pageHeight="1100" math="0" shadow="0">
      <root>
        <mxCell id="0" />
        <mxCell id="1" parent="0" />
        <mxCell id="3nuBFxr9cyL0pnOWT2aG-1" value="ApiService/RefreshData" style="shape=umlLifeline;perimeter=lifelinePerimeter;container=1;collapsible=0;recursiveResize=0;rounded=0;shadow=0;strokeWidth=1;" parent="1" vertex="1">
          <mxGeometry x="90" y="80" width="130" height="300" as="geometry" />
        </mxCell>
        <mxCell id="3nuBFxr9cyL0pnOWT2aG-2" value="" style="points=[];perimeter=orthogonalPerimeter;rounded=0;shadow=0;strokeWidth=1;" parent="3nuBFxr9cyL0pnOWT2aG-1" vertex="1">
          <mxGeometry x="45" y="70" width="10" height="190" as="geometry" />
        </mxCell>
        <mxCell id="3nuBFxr9cyL0pnOWT2aG-3" value="[appel api/refreshdataFromDataBase]" style="verticalAlign=bottom;startArrow=oval;endArrow=block;startSize=8;shadow=0;strokeWidth=1;" parent="3nuBFxr9cyL0pnOWT2aG-1" target="3nuBFxr9cyL0pnOWT2aG-2" edge="1">
          <mxGeometry x="0.0286" relative="1" as="geometry">
            <mxPoint x="-130" y="70" as="sourcePoint" />
            <mxPoint as="offset" />
          </mxGeometry>
        </mxCell>
        <mxCell id="3nuBFxr9cyL0pnOWT2aG-5" value="Manager" style="shape=umlLifeline;perimeter=lifelinePerimeter;container=1;collapsible=0;recursiveResize=0;rounded=0;shadow=0;strokeWidth=1;" parent="1" vertex="1">
          <mxGeometry x="250" y="80" width="100" height="490" as="geometry" />
        </mxCell>
        <mxCell id="3nuBFxr9cyL0pnOWT2aG-6" value="" style="points=[];perimeter=orthogonalPerimeter;rounded=0;shadow=0;strokeWidth=1;" parent="3nuBFxr9cyL0pnOWT2aG-5" vertex="1">
          <mxGeometry x="45" y="80" width="10" height="410" as="geometry" />
        </mxCell>
        <mxCell id="DopvcjN36Z4AIwr0QMlW-23" value="feuEmpire" style="verticalAlign=bottom;endArrow=block;shadow=0;strokeWidth=1;" parent="3nuBFxr9cyL0pnOWT2aG-5" source="3nuBFxr9cyL0pnOWT2aG-6" target="3nuBFxr9cyL0pnOWT2aG-6" edge="1">
          <mxGeometry x="-0.5888" relative="1" as="geometry">
            <mxPoint x="55" y="349" as="sourcePoint" />
            <mxPoint x="55.19999999999982" y="368.06999999999994" as="targetPoint" />
            <Array as="points">
              <mxPoint x="130" y="349" />
              <mxPoint x="130" y="368" />
            </Array>
            <mxPoint as="offset" />
          </mxGeometry>
        </mxCell>
        <mxCell id="3nuBFxr9cyL0pnOWT2aG-8" value="refreshData" style="verticalAlign=bottom;endArrow=block;entryX=0;entryY=0;shadow=0;strokeWidth=1;" parent="1" source="3nuBFxr9cyL0pnOWT2aG-2" target="3nuBFxr9cyL0pnOWT2aG-6" edge="1">
          <mxGeometry relative="1" as="geometry">
            <mxPoint x="275" y="160" as="sourcePoint" />
          </mxGeometry>
        </mxCell>
        <mxCell id="DopvcjN36Z4AIwr0QMlW-1" value="DataBaseConnector" style="shape=umlLifeline;perimeter=lifelinePerimeter;container=1;collapsible=0;recursiveResize=0;rounded=0;shadow=0;strokeWidth=1;" parent="1" vertex="1">
          <mxGeometry x="425" y="80" width="120" height="460" as="geometry" />
        </mxCell>
        <mxCell id="DopvcjN36Z4AIwr0QMlW-2" value="" style="points=[];perimeter=orthogonalPerimeter;rounded=0;shadow=0;strokeWidth=1;" parent="DopvcjN36Z4AIwr0QMlW-1" vertex="1">
          <mxGeometry x="45" y="80" width="10" height="380" as="geometry" />
        </mxCell>
        <mxCell id="DopvcjN36Z4AIwr0QMlW-5" value="updateDatas" style="verticalAlign=bottom;endArrow=block;shadow=0;strokeWidth=1;exitX=0.979;exitY=0.374;exitDx=0;exitDy=0;exitPerimeter=0;" parent="1" edge="1">
          <mxGeometry relative="1" as="geometry">
            <mxPoint x="304.78999999999996" y="181.84000000000003" as="sourcePoint" />
            <mxPoint x="470" y="181.84000000000003" as="targetPoint" />
          </mxGeometry>
        </mxCell>
        <mxCell id="DopvcjN36Z4AIwr0QMlW-16" value="MissionManager" style="shape=umlLifeline;perimeter=lifelinePerimeter;container=1;collapsible=0;recursiveResize=0;rounded=0;shadow=0;strokeWidth=1;" parent="1" vertex="1">
          <mxGeometry x="570" y="80" width="100" height="430" as="geometry" />
        </mxCell>
        <mxCell id="DopvcjN36Z4AIwr0QMlW-17" value="" style="points=[];perimeter=orthogonalPerimeter;rounded=0;shadow=0;strokeWidth=1;" parent="DopvcjN36Z4AIwr0QMlW-16" vertex="1">
          <mxGeometry x="45" y="80" width="10" height="350" as="geometry" />
        </mxCell>
        <mxCell id="GZD4Xb3dl9BsiS5UBGIe-1" value="detectNewfire" style="verticalAlign=bottom;endArrow=block;shadow=0;strokeWidth=1;" edge="1" parent="DopvcjN36Z4AIwr0QMlW-16" source="DopvcjN36Z4AIwr0QMlW-17" target="DopvcjN36Z4AIwr0QMlW-17">
          <mxGeometry x="-0.3855" relative="1" as="geometry">
            <mxPoint x="60" y="270" as="sourcePoint" />
            <mxPoint x="60.19999999999982" y="289.06999999999994" as="targetPoint" />
            <Array as="points">
              <mxPoint x="135" y="270" />
              <mxPoint x="135" y="289" />
            </Array>
            <mxPoint as="offset" />
          </mxGeometry>
        </mxCell>
        <mxCell id="DopvcjN36Z4AIwr0QMlW-20" value="newMissions" style="verticalAlign=bottom;endArrow=block;shadow=0;strokeWidth=1;" parent="1" edge="1">
          <mxGeometry relative="1" as="geometry">
            <mxPoint x="305" y="461" as="sourcePoint" />
            <mxPoint x="565" y="461" as="targetPoint" />
          </mxGeometry>
        </mxCell>
        <mxCell id="DopvcjN36Z4AIwr0QMlW-21" value="newMission" style="verticalAlign=bottom;endArrow=block;shadow=0;strokeWidth=1;" parent="1" edge="1">
          <mxGeometry relative="1" as="geometry">
            <mxPoint x="305" y="484" as="sourcePoint" />
            <mxPoint x="425" y="484" as="targetPoint" />
          </mxGeometry>
        </mxCell>
        <mxCell id="DopvcjN36Z4AIwr0QMlW-22" value="Refresh" style="verticalAlign=bottom;endArrow=block;shadow=0;strokeWidth=1;exitX=1.257;exitY=0.493;exitDx=0;exitDy=0;exitPerimeter=0;" parent="1" edge="1" target="DopvcjN36Z4AIwr0QMlW-16">
          <mxGeometry relative="1" as="geometry">
            <mxPoint x="307.57000000000016" y="339.13" as="sourcePoint" />
            <mxPoint x="565" y="339.13" as="targetPoint" />
          </mxGeometry>
        </mxCell>
        <mxCell id="GZD4Xb3dl9BsiS5UBGIe-2" value="setFires" style="verticalAlign=bottom;endArrow=block;shadow=0;strokeWidth=1;" edge="1" parent="1">
          <mxGeometry relative="1" as="geometry">
            <mxPoint x="470" y="213" as="sourcePoint" />
            <mxPoint x="305" y="213" as="targetPoint" />
          </mxGeometry>
        </mxCell>
        <mxCell id="GZD4Xb3dl9BsiS5UBGIe-3" value="setBarracks" style="verticalAlign=bottom;endArrow=block;shadow=0;strokeWidth=1;fontStyle=0" edge="1" parent="1">
          <mxGeometry relative="1" as="geometry">
            <mxPoint x="470" y="238" as="sourcePoint" />
            <mxPoint x="305" y="238" as="targetPoint" />
          </mxGeometry>
        </mxCell>
        <mxCell id="GZD4Xb3dl9BsiS5UBGIe-4" value="setTrucks" style="verticalAlign=bottom;endArrow=block;shadow=0;strokeWidth=1;fontStyle=0" edge="1" parent="1">
          <mxGeometry x="-0.1515" y="-8" relative="1" as="geometry">
            <mxPoint x="470" y="268" as="sourcePoint" />
            <mxPoint x="305" y="268" as="targetPoint" />
            <mxPoint as="offset" />
          </mxGeometry>
        </mxCell>
        <mxCell id="GZD4Xb3dl9BsiS5UBGIe-5" value="detectIntensityIncreased" style="verticalAlign=bottom;endArrow=block;shadow=0;strokeWidth=1;" edge="1" parent="1">
          <mxGeometry x="-0.3296" relative="1" as="geometry">
            <mxPoint x="630" y="400" as="sourcePoint" />
            <mxPoint x="630" y="419" as="targetPoint" />
            <Array as="points">
              <mxPoint x="710" y="400" />
              <mxPoint x="710" y="419" />
            </Array>
            <mxPoint as="offset" />
          </mxGeometry>
        </mxCell>
      </root>
    </mxGraphModel>
  </diagram>
</mxfile>
